<!-- Generator: Adobe Illustrator 23.0.5, SVG Export Plug-In  -->
<svg version="1.1" xmlns="http://www.w3.org/2000/svg" xmlns:xlink="http://www.w3.org/1999/xlink" x="0px" y="0px" width="114.2px"
	 height="114.2px" viewBox="0 0 114.2 114.2" style="enable-background:new 0 0 114.2 114.2;" xml:space="preserve">
<style type="text/css">
	.st0{fill:#185ABD;}
	.st1{fill:#FFFFFF;}
</style>
	<defs>
</defs>
	<path class="st0" d="M90.7,114.2H23.5C10.6,114.2,0,103.6,0,90.7V23.5C0,10.6,10.6,0,23.5,0h67.3c12.9,0,23.5,10.6,23.5,23.5v67.3
	C114.2,103.6,103.6,114.2,90.7,114.2z"/>
	<g>
	<path class="st1" d="M92.1,48H71c2.3-2.9,3.7-6.6,3.7-10.7c0-9.5-7.7-17.3-17.3-17.3s-17.3,7.7-17.3,17.3c0,4,1.4,7.7,3.7,10.7
		h-0.9H22.1c-0.5,0-0.9,0.4-0.9,0.9v2.4c0,0.5,0.4,0.9,0.9,0.9h25.5h17.8h26.7c0.5,0,0.9-0.4,0.9-0.9v-2.4C93,48.3,92.6,48,92.1,48z
		 M64.9,48H64h-5v-2.6c0.8-0.1,1.4-0.4,2-0.7c0.6-0.3,1.1-0.7,1.5-1.1c0.4-0.4,0.7-1,0.9-1.5c0.2-0.6,0.3-1.2,0.3-1.8
		c0-1.2-0.4-2.2-1.1-3.1c-0.7-0.8-1.9-1.4-3.4-1.7l-0.6-0.1c-0.8-0.1-1.6-0.3-2.3-0.5c-0.6-0.2-1-0.4-1.3-0.6
		c-0.3-0.3-0.4-0.7-0.4-1.2c0-0.5,0.1-0.9,0.4-1.2c0.3-0.3,0.7-0.5,1.3-0.6c0.7-0.1,1.5-0.1,2.3,0.1c1,0.2,1.9,0.7,2.5,1.4l2.1-2.3
		c-0.5-0.6-1.1-1-1.8-1.4c-0.7-0.4-1.6-0.6-2.6-0.8v-2.5h-2.7v2.5c-1.5,0.2-2.7,0.7-3.6,1.6c-0.8,0.8-1.2,1.9-1.2,3.3
		c0,1.2,0.4,2.3,1.1,3.1c0.7,0.9,1.9,1.4,3.4,1.7l0.6,0.1c0.7,0.1,1.4,0.2,2.3,0.4c0.6,0.1,1,0.4,1.3,0.6c0.3,0.3,0.4,0.7,0.4,1.2
		c0,0.6-0.1,1-0.4,1.4c-0.3,0.4-0.7,0.6-1.3,0.7c-0.7,0.1-1.5,0.1-2.3,0c-0.7-0.1-1.3-0.3-1.9-0.6c-0.6-0.3-1.1-0.7-1.6-1.3L50.9,43
		c0.6,0.7,1.3,1.3,2.2,1.7c0.9,0.4,2,0.7,3.2,0.8V48h-6.4c-3.4-2.4-5.6-6.3-5.6-10.7c0-7.2,5.9-13.1,13.1-13.1S70.5,30,70.5,37.3
		C70.5,41.7,68.3,45.6,64.9,48z"/>
		<path class="st1" d="M92.1,94.2h-70c-0.5,0-0.9-0.4-0.9-0.9v-2.4c0-0.5,0.4-0.9,0.9-0.9h70c0.5,0,0.9,0.4,0.9,0.9v2.4
		C93,93.8,92.6,94.2,92.1,94.2z"/>
		<path class="st1" d="M75.6,68.5H38.6c-0.5,0-0.9-0.4-0.9-0.9v-2.4c0-0.5,0.4-0.9,0.9-0.9h36.9c0.5,0,0.9,0.4,0.9,0.9v2.4
		C76.4,68.2,76,68.5,75.6,68.5z"/>
		<rect x="41.9" y="64.4" class="st1" width="4.1" height="29.8"/>
		<rect x="68.1" y="64.4" class="st1" width="4.1" height="29.8"/>
		<path class="st1" d="M58.6,81.7h-2.4c-0.5,0-0.9-0.4-0.9-0.9V65.3c0-0.5,0.4-0.9,0.9-0.9h2.4c0.5,0,0.9,0.4,0.9,0.9v15.5
		C59.5,81.3,59.1,81.7,58.6,81.7z"/>
		<rect x="25.4" y="48" class="st1" width="4.1" height="46.2"/>
		<path class="st1" d="M88,94.2h-2.4c-0.5,0-0.9-0.4-0.9-0.9V61.2c0-0.5,0.4-0.9,0.9-0.9H88c0.5,0,0.9,0.4,0.9,0.9v32.1
		C88.8,93.8,88.4,94.2,88,94.2z"/>
</g>
</svg>
